PathFileType	4	(X/Y/Z)	OpenSim_Sub08_EMGBaseline_Gyro.trc
DataRate	CameraRate	NumFrames	NumMarkers	Units	OrigDataRate	OrigDataStartFrame	OrigNumFrames
100	100	41	8	m	100	832	6654
Frame#	Time	torso_imu_offset_imu	pelvis_imu_offset_imu	tibia_r_imu_offset_imu	femur_r_imu_offset_imu	tibia_l_imu_offset_imu	femur_l_imu_offset_imu	toes_r_imu_offset_imu	toes_l_imu_offset_imu
				X1	Y1	Z1	X2	Y2	Z2	X3	Y3	Z3	X4	Y4	Z4	X5	Y5	Z5	X6	Y6	Z6	X7	Y7	Z7	X8		Y8	Z8	

832	8.31000000	0.11827660	-0.06585870	-0.05962505	0.27630877	0.35160071	0.19573925	-0.02011395	0.48903811	2.72125426	-0.04081534	0.43519218	-0.48793656	0.08378552	-0.08663052	0.98152993	0.18001536	-0.20239030	0.47419083	-0.42770453	2.22826771	2.65479967	-0.00946268	-0.22056109	0.44761193
833	8.32000000	0.11271869	-0.05984899	-0.07145262	0.25985576	0.33537904	0.22899129	0.39031808	0.47669751	2.40763557	0.18197766	0.36160303	-0.50931318	0.03239748	-0.06526218	1.04039638	0.18477419	-0.18365563	0.46616325	0.03153254	1.91347475	2.33333662	0.03306197	-0.22027164	0.41847042
834	8.33000000	0.10519059	-0.05556036	-0.07826036	0.19695554	0.30301347	0.25068776	1.05063732	0.53402354	2.05314471	0.35184052	0.27416550	-0.56724544	-0.05354994	-0.06566540	1.07091648	0.23130463	-0.15319759	0.45320427	0.13775863	1.57847364	2.05853290	0.02434974	-0.23521058	0.32553046
835	8.34000000	0.09836955	-0.05760666	-0.07924281	0.09262027	0.23983600	0.26414844	1.48146500	0.55221766	1.72622484	0.41518465	0.19986731	-0.63249086	-0.06547458	-0.05000588	1.09463611	0.22833939	-0.12535941	0.46314628	-0.24601106	1.29063612	1.82228164	0.09998092	-0.31299372	0.20108046
836	8.35000000	0.08064152	-0.07160820	-0.08737644	-0.00893353	0.18991054	0.27463336	1.27873173	0.45559960	1.42314565	0.34838635	0.10372550	-0.63203625	0.04408571	-0.03753893	1.13324189	0.17400884	-0.11751321	0.47092682	-0.28568570	1.06396016	1.43638425	0.13387662	-0.36484270	0.13947414
837	8.36000000	0.06265816	-0.07849366	-0.09319418	-0.09288759	0.15966617	0.28278698	1.14322592	0.29499685	0.99822956	0.22773719	-0.06895146	-0.55806522	0.11719820	-0.02103428	1.15630121	0.11205125	-0.11475252	0.47095168	0.04882588	0.79040927	0.99717730	0.13735257	-0.44229967	0.06399612
838	8.37000000	0.04282017	-0.08178748	-0.09734046	-0.14499989	0.12659561	0.28657146	1.04148527	0.08227835	0.60470171	0.15254722	-0.25345194	-0.45378361	0.15391702	-0.00705062	1.19072478	0.08645796	-0.08181004	0.47728932	-0.05779419	0.62732027	0.67562361	0.24361838	-0.51417976	0.00819696
839	8.38000000	0.01342992	-0.08049820	-0.11458855	-0.16788323	0.09945888	0.28062289	0.54905851	-0.12039048	0.29496916	0.16733675	-0.37640006	-0.33465030	0.15322802	-0.00068573	1.23516943	0.08958430	-0.04063754	0.48369943	-0.26096110	0.49886628	0.41857435	0.20074099	-0.63386618	-0.01317083
840	8.39000000	-0.01842825	-0.06940335	-0.13984998	-0.16329175	0.07355729	0.26644382	0.06308438	-0.32006304	-0.06310443	0.32888890	-0.41493099	-0.22484748	0.13975482	0.01461543	1.24405592	0.05973587	-0.00618445	0.47901440	-0.41848042	0.15090221	0.17903097	0.22421596	-0.75059938	-0.05254944
841	8.40000000	-0.03851692	-0.05042533	-0.17069480	-0.12568603	0.04719375	0.24987154	-0.29000714	-0.49146232	-0.41243346	0.61392197	-0.40676384	-0.15978346	0.15951251	0.03130531	1.28372899	0.08850226	0.03886545	0.46969263	-0.46886185	-0.28799668	-0.01655787	0.27429894	-0.87611969	-0.11319729
842	8.41000000	-0.05058808	-0.02914334	-0.19938794	-0.06721580	0.00668968	0.23567716	-0.40568734	-0.57494409	-0.70374688	0.92995487	-0.39919938	-0.15634487	0.21529797	0.03607643	1.37900859	0.18561665	0.08866859	0.44736994	-0.34200127	-0.64366072	-0.15998272	0.28722857	-1.01712719	-0.17194685
843	8.42000000	-0.05887559	0.00446844	-0.22604954	0.01042601	-0.03962851	0.22971078	-0.26669065	-0.63460159	-0.97265561	1.14217582	-0.39552068	-0.19718646	0.28438749	0.03510743	1.44138137	0.26630143	0.13020420	0.42184427	-0.10470038	-0.89512016	-0.25161659	0.29636930	-1.15821146	-0.21286090
844	8.43000000	-0.06384178	0.05215802	-0.26120971	0.09101263	-0.07456284	0.22644036	0.05789408	-0.70715790	-1.24983021	1.17478870	-0.43998480	-0.24976414	0.35354827	0.04686729	1.46825983	0.32817005	0.16637147	0.41248612	0.00020064	-0.67156335	-0.26431316	0.34860590	-1.31387384	-0.21912977
845	8.44000000	-0.06519856	0.08924448	-0.28512270	0.16887759	-0.08797552	0.23497779	0.43970888	-0.82463778	-1.50611525	1.13790980	-0.56900319	-0.31638537	0.38629865	0.05307989	1.50000222	0.37274878	0.19375298	0.40877806	0.73954991	-1.03579798	-0.31266233	0.35004004	-1.47103027	-0.17239935
846	8.45000000	-0.05464261	0.12342010	-0.29891744	0.23685321	-0.08573709	0.26148445	0.39853109	-0.93329883	-1.41208351	1.14454093	-0.72360740	-0.39244498	0.38441300	0.04337324	1.56244412	0.40322169	0.21519824	0.41219122	1.13703992	-1.61755249	-0.43603718	0.33388718	-1.64025804	-0.12157431
847	8.46000000	-0.02198299	0.15148219	-0.30587074	0.21919346	-0.09696381	0.29887170	-0.12392425	-0.69086512	-0.52793587	1.18170480	-0.78454464	-0.50302625	0.38956538	0.07026591	1.63477101	0.41300716	0.21745922	0.40401292	1.48574612	-1.61220029	-0.71559406	0.43419875	-1.76881896	-0.05471265
848	8.47000000	0.00780795	0.18380385	-0.28850604	0.06679534	-0.15868428	0.35054640	0.35834976	-0.26995666	0.50212483	1.09395048	-0.68947131	-0.71372060	0.38989152	0.07855807	1.66383125	0.39779829	0.21617024	0.39029876	1.64793116	-2.61814389	-0.59680037	0.38925224	-1.94956330	0.02513989
849	8.48000000	0.02282212	0.23649803	-0.25695943	-0.08863157	-0.21436841	0.39776830	1.61561786	-0.29417382	0.45382373	0.78683874	-0.49469020	-0.95490586	0.39045088	0.05721263	1.66109750	0.35621333	0.23270552	0.38133367	0.41929690	-2.47850024	0.05835642	0.26486021	-2.13345046	0.09309831
850	8.49000000	0.02465607	0.27876241	-0.25085798	-0.18185670	-0.20341453	0.44031355	1.36690933	-0.60565452	-0.54185812	0.38484243	-0.36463007	-1.06522411	0.39442941	0.05122365	1.68481915	0.29652514	0.24730516	0.37533091	1.04162217	-1.89462216	-0.01616284	0.12282685	-2.33311202	0.13648848
851	8.50000000	0.01718358	0.29598162	-0.23806441	-0.27939053	-0.18877046	0.45682586	0.60432803	-0.80172446	-1.41540828	0.04993287	-0.30038642	-1.09555944	0.40218553	0.06032237	1.76384902	0.26743304	0.26252762	0.33279374	1.37973930	-2.14470463	-0.43067410	-0.00584680	-2.53885502	0.08651758
852	8.51000000	0.00789629	0.31115739	-0.22077394	-0.39729879	-0.24215289	0.42113559	1.04333743	-0.75568489	-1.36964773	-0.17373731	-0.11760688	-1.04689773	0.39641576	0.07840507	1.85700165	0.26659484	0.29418194	0.24713617	0.30085755	-2.37333592	-0.57606722	-0.11799166	-2.75441717	-0.01501252
853	8.52000000	-0.00877463	0.33724010	-0.20773092	-0.51178314	-0.31787962	0.36190380	1.88523350	-0.59964035	-0.77167511	-0.32087327	0.07574777	-0.76529207	0.44383017	0.06300406	1.92781319	0.19072327	0.32947838	0.16459726	-0.08212882	-2.32698639	-0.70101881	-0.26412483	-3.05232598	-0.12900708
854	8.53000000	-0.04070612	0.35607524	-0.19568358	-0.58840472	-0.36159405	0.29927843	1.85657380	-0.49782399	-0.55698107	-0.38644760	0.03204616	-0.35468055	0.59693560	0.01207085	2.00730368	-0.01482128	0.39418986	0.08825170	-0.19414185	-2.39711067	-0.78567331	-0.42264845	-3.37515963	-0.30064063
855	8.54000000	-0.06677948	0.36178715	-0.19383202	-0.61761272	-0.37600835	0.24491319	0.95767040	-0.51678817	-0.82622357	-0.38061688	-0.14079297	-0.09302430	0.86159188	-0.06623767	2.13488485	-0.17425348	0.47235982	-0.01699732	-0.30815400	-2.52912290	-0.70128035	-0.56543618	-3.72593579	-0.50051525
856	8.55000000	-0.08124870	0.36054822	-0.20290428	-0.63366511	-0.38433279	0.20959455	0.27631055	-0.66731057	-1.06339573	-0.33990885	-0.28170356	-0.07000734	1.20219093	-0.16992752	2.27108349	-0.19410867	0.56967851	-0.13317925	0.00507690	-2.39553174	-0.51684392	-0.53189103	-4.14424941	-0.73489691
857	8.56000000	-0.09187634	0.35509879	-0.22216357	-0.61565473	-0.41310670	0.18006828	0.27831320	-0.83440407	-1.05596048	-0.24612667	-0.41027386	-0.20561466	1.59165574	-0.19348431	2.34773527	-0.18741126	0.65244780	-0.27147756	0.50827143	-2.08998406	-0.27294172	-0.24317830	-4.63644619	-1.00912949
858	8.57000000	-0.10229882	0.33974819	-0.23889098	-0.54148686	-0.42508681	0.16321630	0.44569326	-0.88256481	-0.93964181	-0.12277326	-0.52950004	-0.31130089	1.89879016	-0.11655484	2.40782219	-0.19997404	0.69403669	-0.40252708	0.66144828	-1.83329590	-0.22250138	0.17015664	-5.12098648	-1.10502987
859	8.58000000	-0.10717907	0.31399121	-0.25051114	-0.42532621	-0.40465091	0.15513737	0.18131275	-0.84931341	-0.90314551	-0.05900702	-0.53170021	-0.33097993	1.92028862	-0.03715539	2.48424404	-0.07460525	0.75007664	-0.52305473	0.26096126	-1.81361615	-0.18323988	0.33392785	-5.42129723	-0.94672985
860	8.59000000	-0.09589211	0.31313146	-0.26492248	-0.26780750	-0.37719738	0.16503251	-0.15939895	-0.82846190	-1.04284344	-0.10173581	-0.37253179	-0.32222196	1.78698430	-0.00724951	2.56259692	0.20037591	0.78912443	-0.70135816	-0.21339067	-1.76753791	0.20361653	0.31737069	-5.57455181	-0.65602579
861	8.60000000	-0.07197734	0.31351182	-0.28409898	-0.08732817	-0.33128487	0.20202870	-0.10389663	-0.90026671	-1.22964330	-0.25841975	-0.19317887	-0.30440391	1.65243734	-0.03540302	2.67073018	0.36675614	0.77847223	-0.95358634	1.47820682	-1.06234878	0.35931257	0.71750564	-5.60094062	-0.28945045
862	8.61000000	-0.03540589	0.27246190	-0.30234454	0.05503584	-0.25452918	0.25015389	0.17001467	-1.02014760	-1.21206847	-0.48939465	-0.11453820	-0.32170623	1.57324597	-0.01685374	2.77664908	0.38088471	0.79096873	-1.23310944	3.29668254	-0.80397115	-0.30692462	1.43838639	-5.54804785	0.03962688
863	8.62000000	0.01060382	0.20917768	-0.30083168	0.14615251	-0.15126466	0.30317375	0.34166096	-0.98570402	-1.01432500	-0.54854832	-0.15219023	-0.39994579	1.55035144	0.04079223	2.81306815	0.40481157	0.80777095	-1.49468105	0.77228055	-0.67481968	-0.62725190	1.91321883	-5.55166165	0.34596149
864	8.63000000	0.05885885	0.13744419	-0.26463101	0.19947296	-0.04091502	0.35745870	0.51004329	-0.95581186	-1.06124221	-0.17526426	-0.33404333	-0.50477892	1.50110882	0.09837897	2.74119038	0.37431515	0.78466071	-1.73316132	-0.68491431	-0.16122990	-0.39477076	2.42028384	-5.57404316	0.60347939
865	8.64000000	0.10235473	0.07276967	-0.22720250	0.19232186	0.05436663	0.41627333	0.43659747	-0.87317690	-1.30612905	0.50421116	-0.53606460	-0.60029312	1.43420588	0.13914325	2.54617146	0.18576017	0.72264107	-1.92393697	0.68844872	-0.31489007	-0.53047911	2.95259834	-5.49988864	0.90079614
866	8.65000000	0.14021175	0.02812520	-0.17952368	0.15523920	0.12079231	0.46097688	0.28321518	-0.66931770	-1.22246325	1.16146262	-0.67033259	-0.63214225	1.38703324	0.13291432	2.29139142	-0.06254617	0.68322943	-2.06249802	0.05841752	-0.14898387	-0.40048687	3.30127613	-5.43163871	1.24408131
867	8.66000000	0.15720599	-0.00634324	-0.11806958	0.13807145	0.14444375	0.47441381	0.36321653	-0.65536758	-0.84666924	1.63476443	-0.75072754	-0.60896948	1.31257523	0.09584598	2.01862825	-0.25152606	0.68570765	-2.12132106	0.23469223	-0.09454404	-0.35668759	3.27536402	-5.31244229	1.60996889
868	8.67000000	0.16238407	-0.03414146	-0.08020097	0.15597899	0.13063940	0.44519645	0.01643554	-0.68110753	-0.58628330	1.87355897	-0.75670719	-0.63491056	1.16914909	0.05172894	1.73966081	-0.32777081	0.68993918	-2.08900314	0.29349911	-0.07028755	-0.32988639	3.69191885	-4.85905326	1.65617842
869	8.68000000	0.16842079	-0.04863995	-0.05632768	0.18976300	0.10807174	0.36589950	-0.31358665	-0.66580462	-0.63246537	1.84481788	-0.69579531	-0.72491892	0.72884707	-0.02263964	1.52661789	-0.28215321	0.67403649	-2.02934279	0.16752257	-0.06607677	-0.31067461	3.86950350	-3.88301026	1.76556371
870	8.69000000	0.17454137	-0.05638448	-0.03315058	0.21925375	0.09569450	0.25190992	-0.50966703	-0.60605962	-0.76724822	1.50743035	-0.59236243	-0.81952668	0.18731607	-0.08798412	1.29943072	-0.15944849	0.62193593	-2.03473435	0.24607288	-0.00741370	-0.32112627	4.19736311	-2.71141074	1.65437451
871	8.70000000	0.17807136	-0.05836203	-0.02753149	0.23491415	0.09147494	0.14108465	-0.62122076	-0.52342758	-0.79729427	0.88475390	-0.45476850	-0.83039439	0.31909799	-0.00266561	1.03910726	-0.02963625	0.57461546	-2.05233646	0.15847823	0.00755132	-0.34927296	6.00882821	0.21102279	1.46126598
872	8.71000000	0.18946231	-0.05666076	-0.02252205	0.21937959	0.09759526	0.04925761	-0.58362445	-0.50027091	-0.72578838	0.16501296	-0.31713136	-0.78579742	0.73856111	0.10998795	0.97525602	0.06226251	0.52205020	-2.01510553	0.22720820	0.05786709	-0.40749127	5.14259241	3.83978901	2.11406251
